<?xml version="1.0" standalone="no"?>
<!DOCTYPE svg PUBLIC "-//W3C//DTD SVG 20010904//EN"
 "http://www.w3.org/TR/2001/REC-SVG-20010904/DTD/svg10.dtd">
<svg version="1.0" xmlns="http://www.w3.org/2000/svg"
 width="1080.000000pt" height="1080.000000pt" viewBox="0 0 1080.000000 1080.000000"
 preserveAspectRatio="xMidYMid meet">
<metadata>
Created by potrace 1.11, written by Peter Selinger 2001-2013
</metadata>
<g transform="translate(0.000000,1080.000000) scale(0.100000,-0.100000)"
fill="#000000" stroke="none">
<path d="M5877 8374 c-1 -1 -65 -4 -142 -8 -77 -3 -158 -8 -180 -11 -22 -3
-60 -7 -85 -10 -463 -56 -887 -225 -1196 -476 -275 -224 -485 -579 -538 -909
-3 -19 -8 -46 -10 -60 -16 -87 -23 -360 -11 -412 2 -13 7 -43 9 -68 27 -249
133 -480 315 -690 268 -307 538 -468 1306 -776 143 -58 274 -111 290 -118 17
-8 64 -28 105 -46 361 -155 516 -246 651 -380 157 -155 211 -286 205 -490 -9
-278 -149 -481 -431 -623 -250 -125 -586 -175 -1030 -153 -71 3 -139 8 -151
10 -11 2 -45 7 -75 10 -76 8 -100 13 -217 42 -325 80 -506 224 -555 441 -17
76 -14 211 9 355 20 124 24 277 11 334 -11 46 -52 110 -94 151 -160 151 -477
151 -643 0 -101 -91 -172 -260 -197 -467 -10 -84 -10 -336 0 -420 53 -441 301
-773 730 -973 134 -63 162 -75 272 -110 162 -52 340 -91 510 -112 28 -4 61 -8
75 -11 151 -24 741 -24 910 1 14 2 48 6 75 10 74 9 175 25 220 35 22 5 56 12
74 15 19 3 76 17 125 31 50 14 105 29 121 33 53 14 259 98 335 136 90 45 209
117 270 162 25 18 59 43 75 55 68 50 244 239 300 323 172 256 248 525 249 875
1 218 -13 308 -76 488 -10 29 -28 72 -40 95 -11 23 -19 42 -17 42 6 0 -82 127
-125 180 -60 76 -213 226 -286 282 -68 53 -184 129 -235 154 -16 9 -84 43
-150 76 -161 82 -396 190 -505 233 -480 188 -879 370 -1031 472 -91 61 -250
207 -301 278 -139 192 -160 495 -52 729 112 242 388 418 744 476 19 3 46 7 60
10 107 19 449 26 588 12 200 -21 402 -85 539 -173 145 -93 230 -232 234 -385
2 -65 -8 -239 -16 -281 -12 -61 -20 -152 -20 -243 0 -93 2 -105 32 -166 112
-227 432 -305 649 -158 113 76 215 265 239 439 3 25 8 52 10 60 29 108 25 445
-9 616 -10 55 -58 187 -89 249 -132 264 -406 503 -722 631 -184 74 -447 142
-615 160 -36 3 -68 8 -71 10 -13 7 -414 24 -422 18z"/>
</g>
</svg>
