<?xml version="1.0" standalone="no"?>
<!DOCTYPE svg PUBLIC "-//W3C//DTD SVG 20010904//EN"
 "http://www.w3.org/TR/2001/REC-SVG-20010904/DTD/svg10.dtd">
<svg version="1.0" xmlns="http://www.w3.org/2000/svg"
 width="1080.000000pt" height="1080.000000pt" viewBox="0 0 1080.000000 1080.000000"
 preserveAspectRatio="xMidYMid meet">
<metadata>
Created by potrace 1.11, written by Peter Selinger 2001-2013
</metadata>
<g transform="translate(0.000000,1080.000000) scale(0.100000,-0.100000)"
fill="#000000" stroke="none">
<path d="M5928 10205 c-2 -2 -46 -6 -98 -10 -52 -3 -111 -8 -130 -10 -19 -2
-64 -7 -100 -10 -86 -8 -379 -54 -450 -71 -14 -3 -36 -8 -49 -11 -24 -4 -172
-39 -201 -48 -8 -2 -49 -13 -90 -25 -88 -25 -212 -66 -257 -86 -17 -8 -36 -14
-42 -14 -6 0 -19 -4 -29 -9 -28 -15 -111 -51 -118 -51 -3 0 -72 -33 -153 -73
-337 -169 -555 -326 -789 -566 -170 -174 -311 -371 -420 -586 -46 -90 -75
-156 -73 -163 1 -1 -5 -15 -13 -31 -14 -27 -82 -225 -91 -266 -66 -296 -79
-409 -79 -670 0 -238 8 -328 50 -529 63 -307 186 -570 384 -821 82 -105 77
-99 226 -250 160 -162 255 -242 426 -357 290 -196 772 -427 1473 -708 916
-367 1274 -540 1510 -728 286 -229 428 -451 462 -727 12 -91 3 -330 -13 -356
-2 -3 -6 -21 -9 -40 -14 -81 -98 -287 -126 -309 -3 -3 -19 -25 -34 -50 -15
-25 -69 -86 -119 -136 -247 -248 -653 -418 -1141 -479 -27 -4 -61 -8 -75 -11
-143 -24 -816 -24 -985 1 -16 2 -70 9 -120 15 -49 6 -103 13 -120 16 -644 109
-1006 336 -1109 694 -22 78 -28 123 -30 223 -2 88 9 222 29 357 2 14 7 49 10
79 4 30 9 63 11 75 3 12 7 93 9 181 3 120 0 174 -11 215 -52 193 -197 328
-421 392 -63 18 -105 22 -218 23 -77 0 -158 -3 -180 -7 -160 -27 -325 -131
-432 -273 -90 -119 -168 -324 -199 -525 -3 -19 -7 -40 -9 -47 -24 -73 -25
-617 -1 -738 2 -11 7 -42 10 -69 4 -27 9 -52 11 -55 1 -3 6 -22 9 -41 12 -74
18 -95 56 -213 44 -134 125 -306 192 -407 52 -79 42 -66 131 -175 229 -281
625 -535 1067 -685 52 -17 104 -36 115 -40 61 -25 367 -102 500 -125 50 -8 97
-17 105 -20 8 -2 35 -6 60 -9 25 -3 99 -12 165 -20 262 -33 423 -41 800 -41
282 1 484 7 580 20 17 2 60 7 96 10 36 3 76 7 90 10 13 2 51 6 84 10 33 3 67
8 75 10 8 2 33 6 55 10 38 5 148 24 170 29 6 2 33 7 60 11 63 11 57 10 80 18
11 3 31 8 45 11 14 2 54 12 90 21 36 9 72 18 80 20 54 11 381 122 455 155 22
9 69 30 105 46 511 225 939 577 1187 977 168 272 281 602 328 957 24 187 24
533 0 700 -31 210 -78 373 -162 550 -70 150 -153 277 -262 404 -237 275 -452
454 -748 622 -125 71 -490 251 -698 344 -88 39 -173 77 -190 85 -73 33 -372
158 -500 209 -77 31 -149 60 -160 65 -11 5 -119 51 -240 101 -121 51 -258 110
-303 131 -46 22 -86 39 -88 39 -3 0 -82 38 -176 85 -300 149 -468 266 -660
460 -234 236 -331 469 -332 795 0 126 5 181 29 299 21 107 99 281 173 386 150
213 420 396 737 499 80 26 260 70 325 80 19 3 44 7 55 10 22 4 166 22 265 32
99 10 535 12 620 3 179 -19 215 -24 290 -39 25 -6 56 -12 70 -15 298 -60 601
-207 748 -364 94 -100 158 -221 187 -355 13 -58 13 -307 1 -393 -3 -17 -7 -62
-11 -100 -6 -78 -14 -141 -20 -163 -19 -68 -25 -335 -10 -417 34 -185 204
-375 397 -443 91 -32 160 -43 268 -43 300 1 509 136 650 421 34 70 74 172 85
219 27 113 45 195 49 228 4 23 8 50 10 61 22 113 36 544 21 664 -3 25 -7 65
-10 90 -60 497 -318 926 -757 1255 -167 126 -387 249 -563 316 -44 16 -89 34
-100 38 -72 32 -363 118 -480 142 -33 7 -64 14 -70 15 -5 1 -50 10 -100 19
-94 18 -106 20 -193 30 -29 4 -61 8 -71 10 -10 2 -54 6 -97 10 -43 4 -90 9
-104 12 -28 6 -726 14 -732 8z"/>
</g>
</svg>
